<mxfile host="app.diagrams.net" modified="2022-08-08T03:55:22.596Z" agent="5.0 (Windows NT 10.0; Win64; x64) AppleWebKit/537.36 (KHTML, like Gecko) Chrome/104.0.0.0 Safari/537.36" etag="BKOlasHMr2zbzeG-FjJA" version="20.2.2" type="github">
  <diagram id="ftpVaE4ZrUkqRL97NRIl" name="Page-1">
    <mxGraphModel dx="782" dy="428" grid="1" gridSize="10" guides="1" tooltips="1" connect="1" arrows="1" fold="1" page="1" pageScale="1" pageWidth="827" pageHeight="1169" math="0" shadow="0">
      <root>
        <mxCell id="0" />
        <mxCell id="1" parent="0" />
        <mxCell id="LjXUgrngTykdXYTC6IcD-18" style="edgeStyle=orthogonalEdgeStyle;rounded=0;orthogonalLoop=1;jettySize=auto;html=1;exitX=0.5;exitY=1;exitDx=0;exitDy=0;entryX=0.5;entryY=0;entryDx=0;entryDy=0;" parent="1" source="LjXUgrngTykdXYTC6IcD-1" target="LjXUgrngTykdXYTC6IcD-4" edge="1">
          <mxGeometry relative="1" as="geometry" />
        </mxCell>
        <mxCell id="LjXUgrngTykdXYTC6IcD-1" value="&lt;font style=&quot;font-size: 18px;&quot; face=&quot;Times New Roman&quot;&gt;Mulai&lt;/font&gt;" style="ellipse;whiteSpace=wrap;html=1;" parent="1" vertex="1">
          <mxGeometry x="355" y="20" width="140" height="50" as="geometry" />
        </mxCell>
        <mxCell id="LjXUgrngTykdXYTC6IcD-2" value="&lt;font style=&quot;font-size: 18px;&quot; face=&quot;Times New Roman&quot;&gt;Selesai&lt;/font&gt;" style="ellipse;whiteSpace=wrap;html=1;" parent="1" vertex="1">
          <mxGeometry x="355" y="680" width="140" height="50" as="geometry" />
        </mxCell>
        <mxCell id="LjXUgrngTykdXYTC6IcD-19" style="edgeStyle=orthogonalEdgeStyle;rounded=0;orthogonalLoop=1;jettySize=auto;html=1;exitX=0.5;exitY=1;exitDx=0;exitDy=0;entryX=0.5;entryY=0;entryDx=0;entryDy=0;" parent="1" source="LjXUgrngTykdXYTC6IcD-4" target="LjXUgrngTykdXYTC6IcD-5" edge="1">
          <mxGeometry relative="1" as="geometry" />
        </mxCell>
        <mxCell id="LjXUgrngTykdXYTC6IcD-4" value="&lt;font face=&quot;Times New Roman&quot; style=&quot;font-size: 18px;&quot;&gt;Install &amp;amp; Import Library&lt;/font&gt;" style="shape=parallelogram;perimeter=parallelogramPerimeter;whiteSpace=wrap;html=1;fixedSize=1;" parent="1" vertex="1">
          <mxGeometry x="305" y="100" width="240" height="40" as="geometry" />
        </mxCell>
        <mxCell id="LjXUgrngTykdXYTC6IcD-21" style="edgeStyle=orthogonalEdgeStyle;rounded=0;orthogonalLoop=1;jettySize=auto;html=1;entryX=0.5;entryY=0;entryDx=0;entryDy=0;" parent="1" source="LjXUgrngTykdXYTC6IcD-5" target="LjXUgrngTykdXYTC6IcD-7" edge="1">
          <mxGeometry relative="1" as="geometry" />
        </mxCell>
        <mxCell id="LjXUgrngTykdXYTC6IcD-5" value="&lt;font face=&quot;Times New Roman&quot; style=&quot;font-size: 18px;&quot;&gt;Data Collecting &amp;amp; Cleaning&lt;/font&gt;" style="shape=parallelogram;perimeter=parallelogramPerimeter;whiteSpace=wrap;html=1;fixedSize=1;" parent="1" vertex="1">
          <mxGeometry x="307.5" y="160" width="235" height="40" as="geometry" />
        </mxCell>
        <mxCell id="LjXUgrngTykdXYTC6IcD-22" style="edgeStyle=orthogonalEdgeStyle;rounded=0;orthogonalLoop=1;jettySize=auto;html=1;exitX=0.5;exitY=1;exitDx=0;exitDy=0;entryX=0.5;entryY=0;entryDx=0;entryDy=0;" parent="1" source="LjXUgrngTykdXYTC6IcD-7" target="LjXUgrngTykdXYTC6IcD-8" edge="1">
          <mxGeometry relative="1" as="geometry" />
        </mxCell>
        <mxCell id="LjXUgrngTykdXYTC6IcD-7" value="&lt;span style=&quot;font-family: &amp;quot;Times New Roman&amp;quot;;&quot;&gt;&lt;font style=&quot;font-size: 18px;&quot;&gt;Data Preprocessing &amp;amp; Transformation&lt;/font&gt;&lt;/span&gt;" style="rounded=0;whiteSpace=wrap;html=1;" parent="1" vertex="1">
          <mxGeometry x="310" y="230" width="230" height="40" as="geometry" />
        </mxCell>
        <mxCell id="ed-cTPTdwdFDzjQblJaU-2" style="edgeStyle=orthogonalEdgeStyle;rounded=0;orthogonalLoop=1;jettySize=auto;html=1;exitX=0.5;exitY=1;exitDx=0;exitDy=0;entryX=0.5;entryY=0;entryDx=0;entryDy=0;fontFamily=Times New Roman;fontSize=18;" edge="1" parent="1" source="LjXUgrngTykdXYTC6IcD-8" target="LjXUgrngTykdXYTC6IcD-11">
          <mxGeometry relative="1" as="geometry" />
        </mxCell>
        <mxCell id="LjXUgrngTykdXYTC6IcD-8" value="&lt;font style=&quot;font-size: 18px;&quot;&gt;Train Model&lt;/font&gt;" style="rounded=0;whiteSpace=wrap;html=1;fontFamily=Times New Roman;fontSize=18;" parent="1" vertex="1">
          <mxGeometry x="310" y="300" width="230" height="40" as="geometry" />
        </mxCell>
        <mxCell id="LjXUgrngTykdXYTC6IcD-26" style="edgeStyle=orthogonalEdgeStyle;rounded=0;orthogonalLoop=1;jettySize=auto;html=1;exitX=0.5;exitY=1;exitDx=0;exitDy=0;entryX=0.5;entryY=0;entryDx=0;entryDy=0;" parent="1" source="LjXUgrngTykdXYTC6IcD-11" target="LjXUgrngTykdXYTC6IcD-15" edge="1">
          <mxGeometry relative="1" as="geometry" />
        </mxCell>
        <mxCell id="LjXUgrngTykdXYTC6IcD-11" value="&lt;font face=&quot;Times New Roman&quot; style=&quot;font-size: 18px;&quot;&gt;Test Model&lt;/font&gt;" style="rounded=0;whiteSpace=wrap;html=1;" parent="1" vertex="1">
          <mxGeometry x="310" y="370" width="230" height="40" as="geometry" />
        </mxCell>
        <mxCell id="LjXUgrngTykdXYTC6IcD-27" style="edgeStyle=orthogonalEdgeStyle;rounded=0;orthogonalLoop=1;jettySize=auto;html=1;exitX=0.5;exitY=1;exitDx=0;exitDy=0;entryX=0.5;entryY=0;entryDx=0;entryDy=0;" parent="1" source="LjXUgrngTykdXYTC6IcD-12" target="LjXUgrngTykdXYTC6IcD-14" edge="1">
          <mxGeometry relative="1" as="geometry" />
        </mxCell>
        <mxCell id="LjXUgrngTykdXYTC6IcD-12" value="&lt;font style=&quot;font-size: 18px;&quot; face=&quot;Times New Roman&quot;&gt;Convert Model ke JSON&lt;/font&gt;" style="rounded=0;whiteSpace=wrap;html=1;" parent="1" vertex="1">
          <mxGeometry x="310" y="540" width="230" height="40" as="geometry" />
        </mxCell>
        <mxCell id="LjXUgrngTykdXYTC6IcD-28" style="edgeStyle=orthogonalEdgeStyle;rounded=0;orthogonalLoop=1;jettySize=auto;html=1;exitX=0.5;exitY=1;exitDx=0;exitDy=0;entryX=0.5;entryY=0;entryDx=0;entryDy=0;" parent="1" source="LjXUgrngTykdXYTC6IcD-14" target="LjXUgrngTykdXYTC6IcD-2" edge="1">
          <mxGeometry relative="1" as="geometry" />
        </mxCell>
        <mxCell id="LjXUgrngTykdXYTC6IcD-14" value="&lt;font face=&quot;Times New Roman&quot; style=&quot;font-size: 18px;&quot;&gt;Export Final Model&lt;/font&gt;" style="shape=parallelogram;perimeter=parallelogramPerimeter;whiteSpace=wrap;html=1;fixedSize=1;" parent="1" vertex="1">
          <mxGeometry x="310" y="610" width="230" height="40" as="geometry" />
        </mxCell>
        <mxCell id="LjXUgrngTykdXYTC6IcD-16" value="Tidak" style="edgeStyle=orthogonalEdgeStyle;rounded=0;orthogonalLoop=1;jettySize=auto;html=1;exitX=1;exitY=0.5;exitDx=0;exitDy=0;entryX=1;entryY=0.5;entryDx=0;entryDy=0;fontSize=16;fontFamily=Times New Roman;" parent="1" source="LjXUgrngTykdXYTC6IcD-15" target="LjXUgrngTykdXYTC6IcD-7" edge="1">
          <mxGeometry relative="1" as="geometry" />
        </mxCell>
        <mxCell id="LjXUgrngTykdXYTC6IcD-17" value="Ya" style="edgeStyle=orthogonalEdgeStyle;rounded=0;orthogonalLoop=1;jettySize=auto;html=1;exitX=0.5;exitY=1;exitDx=0;exitDy=0;entryX=0.5;entryY=0;entryDx=0;entryDy=0;fontSize=16;fontFamily=Times New Roman;" parent="1" source="LjXUgrngTykdXYTC6IcD-15" target="LjXUgrngTykdXYTC6IcD-12" edge="1">
          <mxGeometry relative="1" as="geometry" />
        </mxCell>
        <mxCell id="LjXUgrngTykdXYTC6IcD-15" value="&lt;font face=&quot;Times New Roman&quot; style=&quot;font-size: 18px;&quot;&gt;Model Sudah Akurat?&lt;/font&gt;" style="rhombus;whiteSpace=wrap;html=1;" parent="1" vertex="1">
          <mxGeometry x="310" y="440" width="230" height="60" as="geometry" />
        </mxCell>
      </root>
    </mxGraphModel>
  </diagram>
</mxfile>
